<svg width="101" height="101" viewBox="0 0 101 101" fill="none" xmlns="http://www.w3.org/2000/svg">
<path d="M37.875 16.8333C19.2742 16.8333 4.20833 31.8992 4.20833 50.5C4.20833 69.1008 19.2742 84.1667 37.875 84.1667C56.4758 84.1667 71.5417 69.1008 71.5417 50.5C71.5417 31.8992 56.4758 16.8333 37.875 16.8333ZM50.5 44.1875H42.0833V65.2292H33.6667V44.1875H25.25V37.875H50.5V44.1875ZM85.2188 15.7812L96.7917 21.0417L85.2188 26.3021L79.9583 37.875L74.6979 26.3021L63.125 21.0417L74.6979 15.7812L79.9583 4.20833L85.2188 15.7812ZM85.2188 74.6979L96.7917 79.9583L85.2188 85.2188L79.9583 96.7917L74.6979 85.2188L63.125 79.9583L74.6979 74.6979L79.9583 63.125L85.2188 74.6979Z" fill="white"/>
</svg>
